<?xml version="1.0" encoding="UTF-8"?>
<svg data-bbox="20.083 6.066 759.828 227.873" viewBox="0 0 800 239.9" xmlns="http://www.w3.org/2000/svg" data-type="color">
    <g>
        <path d="M775 127.9c-12.6 4.5-23.4 4.5-32 4.3-12.7-.4-22.5-4.3-30-10.5l1.3-1.1c0-11.8-2.6-23.2-6.1-33.8-3.6-11.1-8.8-21.4-15.5-30.6-6.8-9.3-14.1-18.6-23.4-25.4-9.2-6.7-20.4-10.5-31.5-14-10.7-3.5-21.9-4.9-33.7-4.9-10 0-19.3 1.8-28.5 4.3-9.5 2.6-19.4 4.3-27.7 9.3-7.5 4.5-16.7 13-22.8 19.3-.3.3 3.8 3.6 3.6 3.9-.4.5-2.7-4-3.2-3.6-6.8-7-13.9-14.9-22.3-19.9-8.3-4.9-17.9-7.8-27.4-10.4-9.2-2.5-18.9-5.7-28.9-5.7s-20.2 1.3-29.4 3.8c-9.5 2.6-18.5 7.5-26.8 12.4-8.4 5-15.6 11.6-22.4 18.6-6.8-7-14.5-12.8-22.9-17.8-8.3-4.9-17.2-9.1-26.8-11.7-9.2-2.5-19-5.2-29-5.2s-19.3 1.9-28.5 4.4c-9.5 2.6-18.9 7.7-27.2 12.6-7.6 4.5-14.7 8.2-20.9 14-.7.6-6.3 5.6-7 6.3-.7-.8 5.1-4.4 4.4-5.1-6.8-7.5-15.1-10.4-22.6-14.8-8.3-4.9-16.7-10.4-26.2-13-9.2-2.5-19.2-1.8-29.2-1.8-11.8 0-23.6-.2-34.3 3.3C87 18.7 78 26.4 68.8 33.1c-9.3 6.8-18.5 13.7-25.3 23-6.7 9.2-13.7 19-17.3 30.1-3.5 10.7-4.4 22.7-4.4 34.5s2.3 23.4 5.8 34.1c3.6 11.1 9.3 21.2 16 30.4 6.8 9.3 15.7 16.6 25 23.3 9.2 6.7 18.6 13.5 29.7 17.1 10.7 3.5 22.3 3.2 34.1 3.2 10 0 19.2-1.7 28.4-4.2 9.5-2.6 18.5-5.6 26.8-10.5 8.4-5 16.7-12 23.5-19 6.8 7 14.5 15 22.9 19.9 8.3 4.9 17.7 7.4 27.2 10 9.2 2.5 18.5 5.2 28.5 5.2s19.8-.9 29-3.5c9.5-2.6 18.9-6 27.2-10.9 7.1-4.2 16.8-10.8 22.7-16.2.5-.5-3.9-3.6-3.4-4.1.5-.5 2.6 3.8 3.1 3.3 6.8 7 13.6 12.7 22 17.7 8.3 4.9 17.7 9 27.3 11.6 9.2 2.5 19.4 2.8 29.4 2.8s20-1 29.2-3.5c9.5-2.6 19.1-6.1 27.4-11 8.4-5 15.3-11.6 22.1-18.6 6.8 7 13.9 13.3 22.3 18.3 8.3 4.9 17.8 8.1 27.4 10.7 9.2 2.5 19 3.9 29 3.9 12.8 0 24.7-4.1 36.1-8.2 11.9-4.2 22.8-9.7 32.3-17.5 9.7-7.8 19.2-15.3 25.7-26 13.5.8 24-4.1 34-7.6 12.8-4.4 23.9-9.2 31.2-16.5 14.8-15 18.5-30.1 11.3-27z" fill="#ffffff" data-color="1"/>
        <path d="M773.7 124.8c-19.5 6.6-44.5 7.4-61.4-6 .6 2 1.3 4 1.9 6.1 2.7-2.4 1.4-6.4 1.1-9.8-.5-6-1.7-11.9-3.1-17.7-2.7-10.7-6.5-21.1-11.8-30.8-10-18.5-24.7-36.8-44.1-45.7-21.9-10.1-46.6-14.9-70.6-10.6-11.6 2.1-24.6 4.9-35.3 9.9-10.3 4.8-18.9 13.3-26.8 21.4-.9.9.4 3.5.8 4.3.7 1.3 4.1 4.9 3.6 3.9-.2-1.4-.3-2.9-.5-4.3-1.2-.4-5.2-5.8-6-6.6-4.3-4.4-8.6-8.9-13.5-12.7-9.8-7.6-21.6-11.2-33.4-14.5-12.3-3.4-23.8-6.3-36.7-5.5-13.3.9-26.1 4-38 10-5.3 2.7-10.6 5.6-15.5 9-5.3 3.7-9.5 8.5-14.5 12.3-3.5 2.7-4.4 1.5-7.4-1.2-1.9-1.7-3.9-3.4-6-5-4.6-3.5-9.4-6.7-14.5-9.6-22-12.5-48.2-18.8-73.2-13.6-23.7 4.9-46.8 18.5-64.3 35.2.9 1.9 1.9 3.8 2.8 5.7 0-1.8 4.1-3 4.4-5.1.3-1.8-1.2-4.1-2.2-5.4-6.2-8.2-18.3-12.3-26.8-17.4-10.1-6.1-20.1-11.3-32.1-12.3-12.9-1.1-26.9-.9-39.8.3-12.7 1.2-23.1 5.9-33.4 13.2-9.8 7.1-20.2 14.1-28.7 22.7-16.9 17-27 38.9-28.4 62.8-1.3 22.8 3.2 45.6 14.3 65.6 11.3 20.3 28.4 35 47.9 47.2 20.8 13 47.7 14 71.2 9 12.4-2.6 25-6.5 35.8-13.1 5-3 9.7-6.6 14.1-10.5 1.7-1.4 4.8-5.6 6.8-6.3 3.3-1.2 6.2 3.5 8.4 5.6 9.9 9.6 20.4 16.1 33.6 20.1 13.2 4 26.8 8.1 40.7 7.9 28.4-.4 55.4-11.6 76.5-30.6.5-.4.2-1.3.1-1.9-.9-3.6-2.9-5.2-5.3-7.8.7 1.4 1.4 2.8 2 4.2 0-.1-.1-.3-.1-.4-.1.6-.2 1.2-.4 1.8.7.2 2.1 2.5 2.7 3.2 2.4 2.6 5.3 5 8 7.4 6.4 5.5 13.4 10.1 20.8 13.9 17 8.6 34.2 11.2 53 10.8 18.7-.3 37.9-4.9 54-14.5 7.2-4.3 12.4-10.4 19-15.4 4.7-3.6 6.8.9 10.6 4.3 2.9 2.5 5.8 4.9 9 7.2 14.9 10.5 34.1 16.2 52.1 17.8 18.5 1.7 35.9-3.2 52.9-10.2 16.2-6.7 30.9-17.4 43-30.1 2.5-2.7 4.6-6.9 7.4-9.1 3.3-2.7 9-1.8 12.9-2.5 8.4-1.4 16.4-4.8 24.4-7.7 17.3-6.2 32.5-15 41.3-31.9 2.1-3.9 3.8-8.3 2.4-12.7-.8-2.7-2.3-5.5-5.7-4.3-1.2.4 1.2 6.8 2.5 6.3.2-.1 1.3-.3 1.4-.3.3-.3-.3-2.3-.7-2.1-.3.1-1.1 3.9-1.4 4.4-1.7 4.1-4.3 8-7 11.5-6 7.7-13 13.3-21.8 17.5-8.2 3.9-16.9 6.8-25.4 9.7-4.5 1.5-9 2.9-13.7 3.6-2.3.4-4.7.6-7 .6-3.7.1-2.9-.3-5.2 2.1-3.5 3.9-6.4 8.2-10.2 11.9-3.6 3.4-7.5 6.6-11.3 9.7-7.8 6.4-16.1 11.7-25.3 15.8-20.1 8.9-40.9 14.2-62.8 10.7-24-3.8-44.1-14.1-61.1-31.3-.2-.2-.4-.3-.6-.3-11.1 11.3-22.7 20.3-37.7 25.8-15.8 5.8-31.8 7.6-48.5 7.2-17.1-.5-33-5.1-47.8-13.6-6.8-3.9-13.1-8.7-18.8-14.2-1.3-1.3-5.4-6.9-7.4-7.4-.8-.2-.5 1.5-.4 1.8.9 3.6 2.9 5.2 5.3 7.8-.7-1.4-1.4-2.8-2-4.2 0 .1.1.3.1.4 0-.6.1-1.2.1-1.9-21.1 18.9-48.1 30.2-76.5 30.6-14.7.2-29.8-4.3-43.7-8.9-15.2-5-26-14.7-36.9-26-.2-.2-.4-.3-.6-.3-11.5 11.6-24.3 21-39.8 26.4-15.7 5.4-31.2 7.6-47.7 7.3-18.1-.2-32.4-4.7-47.3-15-14.1-9.8-27.2-20.2-36.5-35-18.7-29.9-21.7-72.8-2.8-103.3 8.7-14 19.2-25 32.5-34.7 12.6-9.3 24.6-19.1 40.6-21.5 9.9-1.5 19.9-1.1 29.9-1.2 9.6-.1 19.2-.2 28.3 3.2 7.8 2.9 14.7 7.5 21.9 11.6 7.8 4.5 15.9 8 22.3 14.6-.7-1.8-1.5-3.6-2.2-5.4-.1 2-4.4 2.7-4.4 5.1 0 .7 1.9 6.5 2.8 5.7 19.5-18.7 45.7-33.2 72.7-36.6 31.9-4.1 66.8 11.3 89 33.7.2.2.4.3.6.3 22.6-23.1 55.2-39.4 88.3-33.9 15 2.5 32.1 7 45.4 14.5 7.3 4.2 13.3 10.1 19.1 16.1 1.5 1.6 5.3 7.1 7.5 7.9 1.3.5-.4-4-.5-4.3-.7-1.3-4.1-4.9-3.6-3.9.3 1.4.5 2.9.8 4.3 6.5-6.6 13.4-13.2 21.2-18.3 8.2-5.3 17.8-7.3 27.1-9.7 21-5.5 42-6.8 63.1-.3 9.2 2.8 18.5 6 26.9 10.7 9.8 5.6 17.5 14 24.3 22.8 7.3 9.5 13.4 19.6 17.4 31 1.8 5.1 3.2 10.2 4.4 15.5.8 3.7 4.1 16.3 1.1 19-1.2 1.1 1 5.3 1.9 6.1 17.3 13.7 42.5 13.4 62.6 6.6 1.3-.3-1.1-6.7-2.5-6.2z" fill="#4d1f0e" data-color="2"/>
    </g>
</svg>
