<svg xmlns="http://www.w3.org/2000/svg" viewBox="0 0 14 14"><defs><style>.cls-1{fill:#f4ba42;}</style></defs><g id="レイヤー_2" data-name="レイヤー 2"><g id="レイヤー_1-2" data-name="レイヤー 1"><path class="cls-1" d="M12.4,14H1.6A1.6,1.6,0,0,1,0,12.4V2.77a1.6,1.6,0,0,1,1.6-1.6H12.4A1.6,1.6,0,0,1,14,2.77V12.4A1.6,1.6,0,0,1,12.4,14ZM1.6,2a.73.73,0,0,0-.72.73V12.4a.72.72,0,0,0,.72.72H12.4a.72.72,0,0,0,.72-.72V2.77A.73.73,0,0,0,12.4,2Z"/><path class="cls-1" d="M13.56,5.54H.44a.44.44,0,1,1,0-.87H13.56a.44.44,0,1,1,0,.87Z"/><path class="cls-1" d="M3.35,3.5a.44.44,0,0,1-.43-.44V.44a.44.44,0,1,1,.87,0V3.06A.44.44,0,0,1,3.35,3.5Z"/><path class="cls-1" d="M10.65,3.5a.44.44,0,0,1-.44-.44V.44a.44.44,0,1,1,.87,0V3.06A.44.44,0,0,1,10.65,3.5Z"/></g></g></svg>